<?xml version="1.0" encoding="UTF-8" standalone="no"?>
<!-- Created with Inkscape (http://www.inkscape.org/) -->

<svg
   version="1.1"
   id="svg870"
   width="437.63684"
   height="823.40564"
   viewBox="0 0 437.63684 823.40564"
   sodipodi:docname="image.svg"
   inkscape:version="1.1.2 (0a00cf5339, 2022-02-04)"
   xmlns:inkscape="http://www.inkscape.org/namespaces/inkscape"
   xmlns:sodipodi="http://sodipodi.sourceforge.net/DTD/sodipodi-0.dtd"
   xmlns="http://www.w3.org/2000/svg"
   xmlns:svg="http://www.w3.org/2000/svg">
  <defs
     id="defs874" />
  <sodipodi:namedview
     id="namedview872"
     pagecolor="#ffffff"
     bordercolor="#666666"
     borderopacity="1.0"
     inkscape:pageshadow="2"
     inkscape:pageopacity="0.0"
     inkscape:pagecheckerboard="0"
     showgrid="false"
     fit-margin-top="0"
     fit-margin-left="0"
     fit-margin-right="0"
     fit-margin-bottom="0"
     inkscape:zoom="0.60104076"
     inkscape:cx="1002.4278"
     inkscape:cy="448.38889"
     inkscape:window-width="1850"
     inkscape:window-height="1016"
     inkscape:window-x="1990"
     inkscape:window-y="27"
     inkscape:window-maximized="1"
     inkscape:current-layer="g876" />
  <g
     inkscape:groupmode="layer"
     inkscape:label="Image"
     id="g876"
     transform="translate(255.54029,49.504849)">
    <path
       style="fill:#999999;stroke-width:1.62088"
       d="M -255.54029,362.19798 V -49.504849 H -36.721853 182.09655 V 362.19798 773.9008 H -36.721853 -255.54029 Z m 154.63593,266.43733 c 5.931107,-2.02092 9.397577,-4.73644 15.001047,-11.75136 4.00811,-5.01768 8.11419,-10.94656 9.12462,-13.17526 1.01042,-2.22871 3.14262,-5.79171 4.73821,-7.91776 1.59559,-2.12606 2.9011,-5.04364 2.90113,-6.48351 3e-5,-1.43988 2.45435,-4.57622 5.45404,-6.96969 5.60229,-4.47007 9.1338,-13.67071 9.1338,-23.79625 0,-7.34593 7.88804,-14.38053 17.45426,-15.56585 4.2181,-0.52265 11.3163,-1.65965 15.7737,-2.52667 4.4574,-0.86702 12.2803002,-2.27745 17.3841002,-3.13428 11.7355,-1.97014 16.5814998,-4.54014 25.0863998,-13.30419 8.3919,-8.64761 13.0203,-18.82816 15.1206,-33.25886 0.8837,-6.07203 2.3251,-15.05172 3.203,-19.95488 0.878,-4.90315 2.2849,-14.02059 3.1265,-20.26096 0.8415,-6.24038 2.4084,-15.35782 3.4818,-20.26097 2.7149,-12.40076 0.6858,-102.0439 -2.5948,-114.63912 -4.1818,-16.05498 -23.4237,-36.10246 -34.6515998,-36.10246 -1.7469,0 -4.7187,-1.96099 -6.604,-4.35773 -3.2625,-4.14757 -4.0492,-4.33932 -16.3116002,-3.97571 -14.3011,0.42407 -21.5453,2.84469 -31.38642,10.48757 -9.78535,7.59958 -10.59267,9.09156 -10.67485,19.72771 -0.0413,5.34889 -1.09369,12.64717 -2.3386,16.2184 -1.6834,4.82914 -1.92771,9.55168 -0.95336,18.42792 1.89515,17.26428 0.42067,37.10123 -3.27655,44.08118 -2.06993,3.90779 -3.22961,9.95821 -3.56998,18.62548 -0.42274,10.76529 -0.96819,12.92686 -3.37905,13.39114 -1.58121,0.30451 -3.97698,-0.36095 -5.32393,-1.47882 -2.94134,-2.44111 -2.08252,-9.71655 3.14008,-26.60056 3.13072,-10.12124 3.49407,-14.84584 3.36572,-43.76369 -0.20846,-46.96843 -1.40574,-55.84911 -8.7961,-65.24444 -1.76515,-2.24401 -3.20935,-5.4585 -3.20935,-7.1433 0,-4.33854 -6.25946,-6.2248 -20.656627,-6.2248 -6.78766,0 -14.71952,-0.86001 -17.62635,-1.91115 -4.44881,-1.6087 -6.34733,-1.43216 -11.99733,1.11564 -7.13574,3.21776 -17.73243,14.11369 -22.84276,23.48779 -1.70099,3.12019 -6.0891,10.41413 -9.75136,16.20877 -14.12639,22.35156 -18.30694,39.17972 -20.02224,80.59627 -1.08314,26.15284 -0.95234,28.25348 2.06905,33.22799 1.7739,2.92062 3.74236,7.8631 4.37436,10.98329 1.16597,5.75648 8.59473,19.02696 14.19165,25.35146 2.04096,2.30628 2.89573,5.29536 2.54932,8.91482 -0.44253,4.62383 -1.62882,6.00856 -7.86436,9.17983 -5.43493,2.76409 -8.3651,5.71262 -11.27548,11.34614 -2.16274,4.18633 -5.2405,9.35103 -6.83946,11.47709 -1.59895,2.12605 -2.90719,5.23618 -2.90719,6.91135 0,1.6752 -1.86827,10.80038 -4.15171,20.27818 -2.28343,9.47782 -4.80583,24.60257 -5.60533,33.61058 -0.79949,9.00801 -2.27201,21.84865 -3.27225,28.53476 -1.00024,6.68612 -1.79525,13.56838 -1.76669,15.2939 0.0763,4.60908 17.57162,19.75955 26.95256,23.34015 4.45741,1.70135 12.17654,3.58879 17.15362,4.1943 4.97708,0.60551 15.55331,2.47114 23.50272,4.14584 18.15092,3.82385 25.63635,3.96031 35.36704,0.64472 z m -36.71114,-45.49332 c -2.29224,-0.59935 -2.4997,-1.35834 -1.09085,-3.99083 0.95685,-1.78789 1.31428,-4.35941 0.79429,-5.71448 -0.53092,-1.38355 0.83569,-4.58055 3.11694,-7.29166 2.89675,-3.4426 4.07142,-6.76879 4.09389,-11.59224 0.10259,-22.02111 7.16073,-47.84723 19.04271,-69.67834 3.22858,-5.93195 4.4285,-10.44243 4.4285,-16.64657 0,-8.3399 -0.22108,-8.73398 -11.06345,-19.7204 -15.3979,-15.6025 -19.50668,-23.03734 -19.48157,-35.25186 0.0184,-8.95804 1.31803,-13.90285 5.32508,-20.26097 0.84275,-1.33722 3.47473,-8.99587 5.84885,-17.01921 2.37411,-8.02334 4.96861,-15.85443 5.76554,-17.40243 0.79694,-1.54801 1.44897,-4.67135 1.44897,-6.94079 0,-2.26944 1.0941,-6.74478 2.43132,-9.9452 1.33722,-3.20044 2.43131,-10.33154 2.43131,-15.84692 0,-10.98334 2.6846,-16.69281 7.05956,-15.01397 2.18766,0.83947 2.66571,3.52192 2.66571,14.95781 0,7.66419 -0.85565,15.52807 -1.90145,17.47529 -1.04579,1.94723 -3.54308,10.10498 -5.54953,18.12832 -4.13156,16.52123 -11.1198,37.50454 -13.41631,40.28468 -3.46887,4.19937 -3.89195,14.1134 -0.89644,21.00646 3.89844,8.97082 17.93297,22.80258 25.92047,25.54596 6.488447,2.22851 26.120677,3.32569 29.071237,1.6247 0.89149,-0.51394 5.26785,-0.93443 9.72527,-0.93443 5.80904,0 9.55246,-1.03291 13.21723,-3.64698 2.81206,-2.00583 6.45903,-3.65796 8.10439,-3.67138 4.66948,-0.0381 15.04928,-4.04475 17.92288,-6.91829 1.7052,-1.70523 3.0296,-7.23336 3.8483,-16.06353 0.6865,-7.40493 1.9634,-18.20457 2.8375,-23.99921 1.4337,-9.50417 1.446,-54.6082 0.02,-72.90403 -0.6466,-8.29548 1.9142,-10.03 7.8115002,-5.29103 3.4252,2.75253 3.5418,4.1069 4.5892,53.32131 0.9691,45.53669 0.7936,51.4278 -1.786,59.97245 -3.4027,11.27095 -9.8050002,18.71741 -20.8944002,24.30188 -4.4512,2.24159 -11.4133,6.46093 -15.47137,9.37632 -4.05802,2.91541 -10.99234,6.18131 -15.40959,7.25759 -11.73722,2.85981 -13.76859,4.33269 -28.59164,20.73091 -22.691627,25.10293 -23.289857,26.18693 -28.061957,50.8482 -1.45421,7.51502 -4.42057,17.76656 -6.59191,22.7812 -2.17126,5.01462 -3.94781,10.52155 -3.94781,12.23763 0,5.95571 -4.88762,8.11098 -13.36627,5.89404 z"
       id="path1848" />
  </g>
</svg>
